<svg width="108" height="14" viewBox="0 0 108 14" fill="none" xmlns="http://www.w3.org/2000/svg">
<path d="M4.36163 8.36081C3.71218 8.14308 3.12178 7.92535 2.59041 7.70762C2.05904 7.47538 1.60148 7.19958 1.21771 6.88025C0.83395 6.56091 0.531366 6.18351 0.309964 5.74806C0.103321 5.29808 0 4.75376 0 4.11509C0 2.88128 0.479705 1.89425 1.43912 1.15397C2.41329 0.413685 3.77122 0.0435452 5.51292 0.0435452C6.14761 0.0435452 6.73802 0.087091 7.28414 0.174183C7.83027 0.261275 8.29522 0.39917 8.67898 0.587868C9.07751 0.762052 9.38747 0.994297 9.60887 1.2846C9.83028 1.56039 9.94098 1.88699 9.94098 2.26439C9.94098 2.64178 9.85242 2.96838 9.67529 3.24417C9.49817 3.50544 9.28415 3.73043 9.03323 3.91913C8.7085 3.71591 8.27308 3.54173 7.72695 3.39658C7.18082 3.23691 6.58304 3.15708 5.93359 3.15708C5.26938 3.15708 4.7823 3.25143 4.47233 3.44012C4.16237 3.61431 4.00739 3.83929 4.00739 4.11509C4.00739 4.33281 4.10333 4.51426 4.29521 4.65941C4.48709 4.79005 4.77492 4.91343 5.15868 5.02955L6.33211 5.39969C7.71957 5.83515 8.7823 6.39399 9.52031 7.07621C10.2731 7.74391 10.6495 8.65837 10.6495 9.8196C10.6495 11.0534 10.155 12.055 9.16607 12.8243C8.17714 13.5791 6.72326 13.9565 4.80444 13.9565C4.12547 13.9565 3.49078 13.8984 2.90037 13.7823C2.32473 13.6807 1.8155 13.5283 1.3727 13.325C0.944651 13.1073 0.605167 12.846 0.354244 12.5412C0.118081 12.2219 0 11.859 0 11.4526C0 11.0316 0.125461 10.676 0.376384 10.3857C0.627307 10.0809 0.90037 9.84863 1.19557 9.68896C1.60886 10.0083 2.1107 10.2841 2.70111 10.5163C3.30628 10.7486 3.96311 10.8647 4.67159 10.8647C5.39484 10.8647 5.90407 10.7558 6.19927 10.5381C6.49448 10.3204 6.64208 10.0664 6.64208 9.77605C6.64208 9.48574 6.524 9.26801 6.28783 9.12286C6.05167 8.96319 5.71957 8.81078 5.29152 8.66563L4.36163 8.36081Z" fill="black"/>
<path d="M12.1702 6.98911C12.1702 5.85692 12.3473 4.85536 12.7016 3.98445C13.0706 3.11353 13.5651 2.38776 14.185 1.80715C14.8197 1.21203 15.5577 0.762053 16.399 0.457231C17.2551 0.15241 18.1776 0 19.1665 0C20.1555 0 21.0706 0.15241 21.9119 0.457231C22.768 0.762053 23.5134 1.21203 24.1481 1.80715C24.7828 2.38776 25.2773 3.11353 25.6315 3.98445C26.0005 4.85536 26.185 5.85692 26.185 6.98911C26.185 8.12131 26.0079 9.13012 25.6536 10.0156C25.2994 10.8865 24.8049 11.6195 24.1702 12.2146C23.5503 12.7952 22.8123 13.2379 21.9562 13.5428C21.1001 13.8476 20.1702 14 19.1665 14C18.1629 14 17.233 13.8476 16.3769 13.5428C15.5208 13.2234 14.7828 12.7662 14.1628 12.1711C13.5429 11.5759 13.0558 10.8429 12.7016 9.97201C12.3473 9.10109 12.1702 8.10679 12.1702 6.98911ZM16.1555 6.98911C16.1555 8.31001 16.4285 9.29704 16.9747 9.95023C17.5208 10.6034 18.2514 10.93 19.1665 10.93C20.0964 10.93 20.8344 10.6034 21.3806 9.95023C21.9267 9.29704 22.1998 8.31001 22.1998 6.98911C22.1998 5.68274 21.9267 4.70295 21.3806 4.04977C20.8492 3.39658 20.1186 3.06998 19.1887 3.06998C18.2736 3.06998 17.5355 3.39658 16.9747 4.04977C16.4285 4.68844 16.1555 5.66822 16.1555 6.98911Z" fill="black"/>
<path d="M40.5568 11.4526C40.5568 11.9025 40.4756 12.2364 40.3133 12.4541C40.1509 12.6719 39.8926 12.8823 39.5383 13.0855C39.3317 13.2017 39.0734 13.3178 38.7634 13.4339C38.4535 13.5355 38.114 13.6226 37.745 13.6952C37.376 13.7823 36.9848 13.8476 36.5716 13.8911C36.173 13.9347 35.7745 13.9565 35.376 13.9565C34.3132 13.9565 33.3169 13.8186 32.387 13.5428C31.4572 13.2525 30.6453 12.8243 29.9516 12.2582C29.2726 11.6776 28.7339 10.959 28.3354 10.1026C27.9369 9.24624 27.7376 8.25194 27.7376 7.11975C27.7376 5.9295 27.9516 4.89165 28.3797 4.00622C28.8225 3.12079 29.3981 2.38776 30.1066 1.80715C30.8298 1.21203 31.649 0.76931 32.5642 0.479004C33.4941 0.188698 34.4461 0.0435452 35.4203 0.0435452C36.8225 0.0435452 37.9295 0.268533 38.7413 0.718507C39.5679 1.15397 39.9812 1.72732 39.9812 2.43857C39.9812 2.81597 39.8852 3.14256 39.6933 3.41835C39.5014 3.69414 39.28 3.91187 39.0291 4.07154C38.6601 3.85381 38.1952 3.64334 37.6343 3.44012C37.0882 3.22239 36.4682 3.11353 35.7745 3.11353C34.5346 3.11353 33.5457 3.4619 32.8077 4.15863C32.0845 4.85537 31.7228 5.82063 31.7228 7.05443C31.7228 7.72214 31.8188 8.30275 32.0107 8.79627C32.2173 9.27527 32.4904 9.67444 32.8298 9.99378C33.1693 10.2986 33.5605 10.5308 34.0033 10.6905C34.4461 10.8357 34.9184 10.9082 35.4203 10.9082C35.745 10.9082 36.0328 10.8792 36.2837 10.8211C36.5347 10.7631 36.7265 10.6978 36.8594 10.6252V8.57854H34.4904C34.4018 8.41887 34.3132 8.2084 34.2247 7.94712C34.1509 7.68585 34.114 7.41006 34.114 7.11975C34.114 6.5972 34.2321 6.2198 34.4682 5.98756C34.7192 5.75531 35.0365 5.63919 35.4203 5.63919H39.162C39.6048 5.63919 39.9443 5.76257 40.1804 6.00933C40.4313 6.24158 40.5568 6.57543 40.5568 7.01089V11.4526Z" fill="black"/>
<path d="M46.9567 10.7776C47.1191 10.8066 47.3183 10.8357 47.5545 10.8647C47.7907 10.8792 48.0121 10.8865 48.2187 10.8865C48.7206 10.8865 49.1781 10.8139 49.5914 10.6687C50.0195 10.5236 50.3811 10.2986 50.6763 9.99378C50.9862 9.68896 51.2224 9.29704 51.3848 8.81804C51.5619 8.32452 51.6505 7.73665 51.6505 7.05443C51.6505 5.74806 51.3405 4.76827 50.7206 4.11509C50.1006 3.44738 49.2741 3.11353 48.2409 3.11353C48.0342 3.11353 47.8202 3.12079 47.5988 3.1353C47.3921 3.14982 47.1781 3.17159 46.9567 3.20062V10.7776ZM48.1966 13.9565C47.9456 13.9565 47.6578 13.9492 47.3331 13.9347C47.0084 13.9202 46.6689 13.8911 46.3147 13.8476C45.9752 13.804 45.6283 13.746 45.2741 13.6734C44.9346 13.6153 44.6172 13.5283 44.322 13.4121C43.5102 13.1073 43.1043 12.5775 43.1043 11.8227V1.65474C43.1043 1.34992 43.1855 1.11768 43.3479 0.958009C43.525 0.783825 43.7611 0.64593 44.0563 0.544323C44.691 0.341109 45.3626 0.210471 46.0711 0.15241C46.7796 0.0798335 47.4143 0.0435452 47.9752 0.0435452C49.1265 0.0435452 50.1671 0.18144 51.0969 0.457231C52.0416 0.733021 52.846 1.16122 53.5102 1.74183C54.1892 2.30793 54.7132 3.02644 55.0822 3.89736C55.4512 4.76827 55.6357 5.79886 55.6357 6.98911C55.6357 8.15034 55.4586 9.16641 55.1043 10.0373C54.7501 10.8937 54.2409 11.6195 53.5767 12.2146C52.9272 12.7952 52.1449 13.2307 51.2298 13.521C50.3147 13.8113 49.3036 13.9565 48.1966 13.9565Z" fill="black"/>
<path d="M60.5548 0.805599C60.8057 0.660445 61.1821 0.52255 61.684 0.391912C62.2006 0.261274 62.7172 0.195955 63.2338 0.195955C63.9718 0.195955 64.6212 0.30482 65.1821 0.52255C65.7578 0.725765 66.1268 1.05236 66.2891 1.50233C66.5548 2.25713 66.8427 3.1353 67.1526 4.13686C67.4626 5.13841 67.7725 6.17626 68.0825 7.25039C68.3925 8.31 68.695 9.36236 68.9902 10.4075C69.2855 11.4381 69.5438 12.3525 69.7652 13.1509C69.588 13.3541 69.3224 13.5137 68.9681 13.6299C68.6139 13.7605 68.1932 13.8258 67.7061 13.8258C67.3519 13.8258 67.0493 13.7968 66.7984 13.7387C66.5622 13.6807 66.3629 13.5936 66.2006 13.4774C66.053 13.3613 65.9275 13.2089 65.8242 13.0202C65.7356 12.8315 65.6545 12.6138 65.5807 12.367L65.1821 10.8647H61.1747C61.0567 11.3002 60.9386 11.7501 60.8205 12.2146C60.7024 12.6791 60.5843 13.1291 60.4663 13.5645C60.2596 13.6371 60.0382 13.6952 59.802 13.7387C59.5806 13.7968 59.3076 13.8258 58.9829 13.8258C58.2301 13.8258 57.6692 13.7024 57.3002 13.4557C56.946 13.1944 56.7688 12.8388 56.7688 12.3888C56.7688 12.1856 56.7984 11.9824 56.8574 11.7792C56.9164 11.5759 56.9829 11.3364 57.0567 11.0607C57.16 10.6687 57.3002 10.1825 57.4773 9.60187C57.6692 9.02125 57.8758 8.3971 58.0972 7.72939C58.3186 7.04717 58.5548 6.35044 58.8057 5.63919C59.0567 4.92794 59.2928 4.26024 59.5142 3.63608C59.7356 2.99741 59.9349 2.43131 60.112 1.93779C60.3039 1.44427 60.4515 1.06687 60.5548 0.805599ZM63.2116 3.61431C63.005 4.22395 62.7688 4.90617 62.5032 5.66096C62.2522 6.40124 62.0235 7.15604 61.8168 7.92535H64.5622C64.3556 7.14152 64.1415 6.37947 63.9201 5.63919C63.7135 4.8844 63.5216 4.20943 63.3445 3.61431H63.2116Z" fill="black"/>
<path d="M83.5184 11.4526C83.5184 11.9025 83.4372 12.2364 83.2749 12.4541C83.1125 12.6719 82.8542 12.8823 82.5 13.0855C82.2933 13.2017 82.035 13.3178 81.7251 13.4339C81.4151 13.5355 81.0756 13.6226 80.7066 13.6952C80.3376 13.7823 79.9464 13.8476 79.5332 13.8911C79.1346 13.9347 78.7361 13.9565 78.3376 13.9565C77.2749 13.9565 76.2785 13.8186 75.3487 13.5428C74.4188 13.2525 73.607 12.8243 72.9132 12.2582C72.2343 11.6776 71.6955 10.959 71.297 10.1026C70.8985 9.24624 70.6992 8.25194 70.6992 7.11975C70.6992 5.9295 70.9132 4.89165 71.3413 4.00622C71.7841 3.12079 72.3597 2.38776 73.0682 1.80715C73.7915 1.21203 74.6106 0.76931 75.5258 0.479004C76.4557 0.188698 77.4077 0.0435452 78.3819 0.0435452C79.7841 0.0435452 80.8911 0.268533 81.7029 0.718507C82.5295 1.15397 82.9428 1.72732 82.9428 2.43857C82.9428 2.81597 82.8468 3.14256 82.6549 3.41835C82.4631 3.69414 82.2417 3.91187 81.9907 4.07154C81.6217 3.85381 81.1568 3.64334 80.5959 3.44012C80.0498 3.22239 79.4298 3.11353 78.7361 3.11353C77.4963 3.11353 76.5073 3.4619 75.7693 4.15863C75.0461 4.85537 74.6844 5.82063 74.6844 7.05443C74.6844 7.72214 74.7804 8.30275 74.9723 8.79627C75.1789 9.27527 75.452 9.67444 75.7915 9.99378C76.1309 10.2986 76.5221 10.5308 76.9649 10.6905C77.4077 10.8357 77.88 10.9082 78.3819 10.9082C78.7066 10.9082 78.9944 10.8792 79.2453 10.8211C79.4963 10.7631 79.6881 10.6978 79.821 10.6252V8.57854H77.452C77.3634 8.41887 77.2749 8.2084 77.1863 7.94712C77.1125 7.68585 77.0756 7.41006 77.0756 7.11975C77.0756 6.5972 77.1937 6.2198 77.4298 5.98756C77.6808 5.75531 77.9981 5.63919 78.3819 5.63919H82.1236C82.5664 5.63919 82.9059 5.76257 83.142 6.00933C83.393 6.24158 83.5184 6.57543 83.5184 7.01089V11.4526Z" fill="black"/>
<path d="M89.9405 13.521C89.7781 13.5645 89.5198 13.6081 89.1656 13.6516C88.8261 13.6952 88.4866 13.717 88.1471 13.717C87.8076 13.717 87.505 13.6879 87.2394 13.6299C86.9884 13.5863 86.7744 13.4992 86.5973 13.3686C86.4202 13.2379 86.2873 13.0565 86.1988 12.8243C86.1102 12.592 86.0659 12.2872 86.0659 11.9098V0.413686C86.2283 0.384655 86.4866 0.348366 86.8408 0.304821C87.1951 0.24676 87.5346 0.217729 87.8593 0.217729C88.1988 0.217729 88.494 0.24676 88.7449 0.304821C89.0106 0.348366 89.232 0.435458 89.4091 0.566096C89.5862 0.696733 89.7191 0.878175 89.8076 1.11042C89.8962 1.34266 89.9405 1.64749 89.9405 2.02488V13.521Z" fill="black"/>
<path d="M102.089 10.3639C101.897 10.5236 101.646 10.6542 101.336 10.7558C101.041 10.8429 100.694 10.8865 100.295 10.8865C99.7638 10.8865 99.321 10.8212 98.9668 10.6905C98.6273 10.5599 98.4059 10.3349 98.3026 10.0156C97.8893 8.73821 97.5498 7.70762 97.2841 6.92379C97.0184 6.12545 96.8118 5.42872 96.6642 4.83359H96.5535C96.5092 5.68999 96.4723 6.47382 96.4428 7.18507C96.428 7.8818 96.4133 8.56402 96.3985 9.23173C96.3985 9.89943 96.3837 10.5744 96.3542 11.2566C96.3395 11.9388 96.3099 12.6936 96.2657 13.521C96.0738 13.5936 95.8229 13.6516 95.5129 13.6952C95.2029 13.7532 94.893 13.7823 94.583 13.7823C93.9336 13.7823 93.4243 13.6807 93.0553 13.4774C92.7011 13.2742 92.524 12.9041 92.524 12.367L93.166 1.26283C93.2841 1.07413 93.5424 0.870917 93.9409 0.653187C94.3395 0.435458 94.9004 0.326594 95.6236 0.326594C96.4059 0.326594 97.0184 0.449974 97.4612 0.696733C97.904 0.928978 98.2288 1.31363 98.4354 1.8507C98.5683 2.19907 98.7085 2.59824 98.8561 3.04821C99.0184 3.49818 99.1734 3.96267 99.321 4.44168C99.4834 4.92068 99.6384 5.39969 99.786 5.87869C99.9336 6.34318 100.066 6.76413 100.184 7.14152H100.295C100.649 5.92224 101.004 4.7465 101.358 3.61431C101.712 2.4676 102.037 1.50959 102.332 0.740279C102.553 0.624157 102.834 0.529807 103.173 0.457231C103.528 0.370139 103.919 0.326594 104.347 0.326594C105.07 0.326594 105.661 0.435458 106.118 0.653187C106.576 0.856401 106.841 1.15397 106.915 1.54588C106.974 1.83618 107.033 2.28616 107.092 2.8958C107.166 3.49093 107.24 4.16589 107.314 4.92068C107.387 5.67548 107.461 6.47382 107.535 7.31571C107.609 8.15759 107.675 8.97045 107.734 9.75428C107.808 10.5236 107.867 11.2348 107.911 11.888C107.956 12.5267 107.985 13.0202 108 13.3686C107.749 13.5137 107.483 13.6153 107.203 13.6734C106.937 13.746 106.59 13.7823 106.162 13.7823C105.601 13.7823 105.129 13.6879 104.745 13.4992C104.362 13.3105 104.155 12.9404 104.125 12.3888C104.037 10.8066 103.978 9.38414 103.948 8.12131C103.934 6.85848 103.904 5.79886 103.86 4.94246H103.749C103.601 5.50855 103.387 6.2198 103.107 7.07621C102.827 7.93261 102.487 9.02851 102.089 10.3639Z" fill="black"/>
</svg>
